<?xml version="1.0" standalone="no"?>
<!DOCTYPE svg PUBLIC "-//W3C//DTD SVG 20010904//EN"
 "http://www.w3.org/TR/2001/REC-SVG-20010904/DTD/svg10.dtd">
<svg version="1.0" xmlns="http://www.w3.org/2000/svg"
 width="300.000000pt" height="300.000000pt" viewBox="0 0 300.000000 300.000000"
 preserveAspectRatio="xMidYMid meet">
<metadata>
Created by potrace 1.10, written by Peter Selinger 2001-2011
</metadata>
<g transform="translate(0.000000,300.000000) scale(0.100000,-0.100000)"
fill="#000000" stroke="none">
<path d="M1415 2602 c-69 -6 -214 -35 -270 -54 -147 -50 -332 -165 -433 -269
-151 -153 -262 -366 -299 -569 -36 -198 -7 -482 54 -529 25 -21 37 -21 521
-21 l495 0 98 99 c77 77 99 104 99 126 0 22 -32 59 -162 192 -90 90 -164 168
-166 173 -2 6 212 10 577 10 l580 0 25 23 c24 22 24 23 10 75 -37 139 -161
333 -287 449 -154 142 -369 249 -569 283 -62 11 -215 18 -273 12z m205 -42
c315 -36 592 -204 767 -465 58 -86 133 -247 133 -285 0 -6 -228 -10 -635 -10
-349 0 -635 -2 -635 -4 0 -2 91 -97 203 -210 l203 -206 -91 -90 -91 -90 -499
2 -500 3 -18 85 c-23 104 -27 328 -8 415 20 95 50 183 93 270 198 401 632 636
1078 585z"/>
<path d="M1375 2320 c-251 -40 -469 -190 -598 -412 -70 -122 -98 -218 -104
-360 l-6 -117 312 -3 c171 -2 311 -1 311 2 0 3 -89 94 -197 202 l-198 198 100
100 100 100 522 -2 c288 -2 523 0 523 3 0 11 -116 116 -165 149 -69 47 -181
97 -270 120 -93 24 -244 33 -330 20z m320 -55 c39 -10 102 -32 140 -50 74 -34
195 -118 195 -135 0 -6 -76 -10 -207 -11 -115 0 -320 0 -458 -1 -179 0 -259
-4 -280 -13 -29 -12 -188 -166 -207 -200 -6 -9 -7 -26 -4 -38 3 -12 75 -92
161 -177 85 -85 155 -158 155 -162 0 -5 -108 -8 -240 -8 l-240 0 0 77 c0 175
95 383 239 521 113 109 277 190 436 215 59 10 242 -1 310 -18z"/>
<path d="M1624 1627 c-20 -17 -25 -28 -18 -39 19 -33 121 -143 177 -189 l58
-49 210 0 c237 0 232 2 211 -76 -50 -188 -196 -362 -382 -458 -124 -64 -228
-89 -370 -89 -221 0 -414 82 -565 239 -33 35 -73 68 -89 74 -17 6 -84 10 -153
9 -113 -1 -127 -3 -151 -24 -24 -21 -25 -24 -12 -56 25 -61 104 -165 189 -248
147 -144 331 -243 538 -291 352 -82 720 22 998 281 34 33 82 85 106 117 24 31
46 59 49 62 12 11 43 70 75 137 71 150 113 348 107 499 -2 60 -7 76 -27 98
l-24 26 -450 0 -450 0 -27 -23z m938 -69 c7 -86 -11 -254 -38 -347 -51 -179
-139 -327 -269 -456 -138 -137 -305 -232 -493 -282 -84 -22 -118 -26 -252 -27
-128 0 -171 4 -243 22 -213 53 -356 133 -508 282 -93 92 -177 197 -195 245 -5
13 14 15 143 15 l149 0 47 -54 c229 -266 644 -345 972 -186 236 114 390 316
449 593 l6 27 -242 0 -242 0 -111 110 -112 110 468 0 467 0 4 -52z"/>
</g>
</svg>
